<svg t="1674472697839" class="icon" viewBox="0 0 1025 1024" version="1.1" xmlns="http://www.w3.org/2000/svg" p-id="1940" width="200" height="200"><path d="M512.034756 907.637527c-53.396285 0-105.212605-10.463817-154.0103-31.100646-47.117381-19.927227-89.425236-48.446477-125.748063-84.767256-36.32385-36.322826-64.846172-78.629658-84.7734-125.748063-20.639901-48.799742-31.104742-100.620158-31.104742-154.020539s10.46484-105.220797 31.104742-154.020539c19.928251-47.117381 48.449549-89.425236 84.7734-125.747039 36.322826-36.321802 78.630682-64.841053 125.748063-84.76828 48.797694-20.636829 100.614014-31.10167 154.0103-31.10167 53.396285 0 105.212605 10.463817 154.0103 31.10167 47.117381 19.926203 89.425236 48.446477 125.748063 84.76828 36.32385 36.321802 64.846172 78.629658 84.7734 125.747039 20.639901 48.799742 31.105766 100.620158 31.105766 154.020539s-10.465864 105.220797-31.105766 154.020539c-19.927227 47.118405-48.449549 89.425236-84.7734 125.748063-36.322826 36.320779-78.630682 64.840029-125.748063 84.767256C617.247361 897.173711 565.432065 907.637527 512.034756 907.637527zM512.034756 186.182004c-179.656326 0-325.817996 146.161669-325.817996 325.81902s146.161669 325.81902 325.817996 325.81902c179.65735 0 325.817996-146.161669 325.817996-325.81902S691.69313 186.182004 512.034756 186.182004z" fill="#889297" p-id="1941"></path><path d="M775.947384 565.960486l-23.641119-65.692985c68.03887-24.486908 123.392961-52.291436 160.074173-80.410319 33.408645-25.60814 43.405537-45.524104 41.619756-55.622368-3.29407-18.680047-52.596575-49.250283-174.934861-56.962728l4.393799-69.680273c63.604113 4.01084 115.885309 14.094768 155.38957 29.972245 61.380078 24.670196 79.507189 59.587129 83.906108 84.533794 3.994456 22.606923-1.212365 45.664386-15.479158 68.521154-11.488797 18.406651-29.125433 36.792823-52.41943 54.649609C912.536079 507.708596 850.670645 539.069327 775.947384 565.960486z" fill="#889297" p-id="1942"></path><path d="M302.450214 648.767888c-72.724498 0.001024-136.280484-7.199442-185.314713-21.093514-30.644985-8.683155-55.656158-20.031671-74.33723-33.727095-23.316525-17.093938-37.273059-37.861834-41.482546-61.724128-10.672704-60.42575 43.745491-121.440276 157.373998-176.440078l30.417666 62.843313c-99.800992 48.306195-121.503761 87.489957-119.036024 101.460827 1.857458 10.533446 20.28254 27.431808 66.097448 40.413535 49.618908 14.05893 117.919911 20.275372 197.522328 17.991948l2.006956 69.788813C324.427403 648.606103 313.329757 648.767888 302.450214 648.767888z" fill="#889297" p-id="1943"></path><path d="M684.535671 531.887293c-11.272743 1.999788-87.204273 16.136538-87.204273 16.136538L468.694752 427.068911l-29.477674 3.86339 63.022505 135.863734-65.545535 10.909238-71.022681-44.90973-12.95408-0.61335 40.886603 83.772994-11.409953 92.205279 12.476916-4.842293 49.250283-64.067965c0 0 228.159121-42.453257 251.18177-46.499935 24.864748-4.409159 33.023637-14.86376 29.023037-37.566934C720.536975 534.887487 705.42337 528.205143 684.535671 531.887293zM513.51335 637.250419l-16.205143 132.409927 25.204701-6.023939 77.364047-141.658306L513.51335 637.250419 513.51335 637.250419 513.51335 637.250419 513.51335 637.250419z" fill="#889297" p-id="1944"></path></svg>